<svg width="1200" height="760" viewBox="0 0 1200 760" fill="none" xmlns="http://www.w3.org/2000/svg">
  <defs>
    <linearGradient id="bg" x1="0" y1="0" x2="1200" y2="760" gradientUnits="userSpaceOnUse">
      <stop stop-color="#F9FAFB"/>
      <stop offset="1" stop-color="#E2E8F0"/>
    </linearGradient>
    <linearGradient id="wall" x1="0" y1="0" x2="0" y2="400" gradientUnits="userSpaceOnUse">
      <stop stop-color="#FFF7D6"/>
      <stop offset="1" stop-color="#FCEFC0"/>
    </linearGradient>
  </defs>

  <rect width="1200" height="760" rx="24" fill="url(#bg)"/>
  <rect x="40" y="40" width="1120" height="300" rx="18" fill="url(#wall)"/>

  <rect x="110" y="95" width="180" height="120" rx="10" fill="#FEF3C7" stroke="#F59E0B" stroke-width="8"/>
  <rect x="325" y="95" width="180" height="120" rx="10" fill="#DBEAFE" stroke="#3B82F6" stroke-width="8"/>
  <rect x="540" y="95" width="180" height="120" rx="10" fill="#DCFCE7" stroke="#22C55E" stroke-width="8"/>
  <rect x="755" y="95" width="180" height="120" rx="10" fill="#FCE7F3" stroke="#EC4899" stroke-width="8"/>

  <rect x="70" y="360" width="1060" height="330" rx="24" fill="#D6E4F0"/>
  <rect x="120" y="420" width="960" height="210" rx="16" fill="#FFF"/>
  <rect x="200" y="455" width="210" height="130" rx="12" fill="#E5E7EB"/>
  <rect x="450" y="455" width="210" height="130" rx="12" fill="#E5E7EB"/>
  <rect x="700" y="455" width="210" height="130" rx="12" fill="#E5E7EB"/>

  <circle cx="280" cy="400" r="42" fill="#F59E0B"/>
  <circle cx="520" cy="400" r="42" fill="#3B82F6"/>
  <circle cx="760" cy="400" r="42" fill="#8B5CF6"/>
  <circle cx="980" cy="400" r="42" fill="#22C55E"/>

  <rect x="245" y="440" width="70" height="16" rx="8" fill="#94A3B8"/>
  <rect x="485" y="440" width="70" height="16" rx="8" fill="#94A3B8"/>
  <rect x="725" y="440" width="70" height="16" rx="8" fill="#94A3B8"/>
  <rect x="945" y="440" width="70" height="16" rx="8" fill="#94A3B8"/>
</svg>
